<?xml version="1.0"?>
<svg xmlns="http://www.w3.org/2000/svg" xmlns:xlink="http://www.w3.org/1999/xlink" xmlns:svgjs="http://svgjs.com/svgjs" version="1.1" width="512" height="512" x="0" y="0" viewBox="0 0 512 512" style="enable-background:new 0 0 512 512" xml:space="preserve" class=""><g><path xmlns="http://www.w3.org/2000/svg" d="m150 331c0-33.085938-26.914062-60-60-60s-60 26.914062-60 60 26.914062 60 60 60 60-26.914062 60-60zm-60 30c-16.542969 0-30-13.457031-30-30s13.457031-30 30-30 30 13.457031 30 30-13.457031 30-30 30zm0 0" fill="#ffffff" data-original="#000000" style="" class=""/><path xmlns="http://www.w3.org/2000/svg" d="m482 331c0-33.085938-26.914062-60-60-60s-60 26.914062-60 60 26.914062 60 60 60 60-26.914062 60-60zm-60 30c-16.542969 0-30-13.457031-30-30s13.457031-30 30-30 30 13.457031 30 30-13.457031 30-30 30zm0 0" fill="#ffffff" data-original="#000000" style="" class=""/><path xmlns="http://www.w3.org/2000/svg" d="m422 391c-16.46875 0-32.285156 4.5-46.101562 12.925781l-104.898438-66.195312v-96.730469h75v-30c0-49.914062-40.421875-91-90-91-49.550781 0-90 41.050781-90 91v30h75v96.730469l-104.898438 66.195312c-13.816406-8.425781-29.632812-12.925781-46.101562-12.925781-49.550781 0-90 41.050781-90 91v30h180v-30c0-21.097656-7.179688-41.1875-20.375-57.445312l96.375-60.816407 96.375 60.816407c-13.195312 16.257812-20.375 36.347656-20.375 57.445312v30h180v-30c0-49.914062-40.421875-91-90-91zm-166-241c33.085938 0 60 27.363281 60 61h-120c0-33.636719 26.914062-61 60-61zm-226 332c0-33.636719 26.914062-61 60-61s60 27.363281 60 61zm332 0c0-33.636719 26.914062-61 60-61s60 27.363281 60 61zm0 0" fill="#ffffff" data-original="#000000" style="" class=""/><path xmlns="http://www.w3.org/2000/svg" d="m316 60c0-33.085938-26.914062-60-60-60s-60 26.914062-60 60 26.914062 60 60 60 60-26.914062 60-60zm-60 30c-16.542969 0-30-13.457031-30-30s13.457031-30 30-30 30 13.457031 30 30-13.457031 30-30 30zm0 0" fill="#ffffff" data-original="#000000" style="" class=""/></g></svg>
