<?xml version="1.0" encoding="utf-8"?>
<!-- Generator: Adobe Illustrator 25.3.1, SVG Export Plug-In . SVG Version: 6.00 Build 0)  -->
<svg version="1.1" id="Layer_1" xmlns="http://www.w3.org/2000/svg" xmlns:xlink="http://www.w3.org/1999/xlink" x="0px" y="0px"
	 viewBox="0 0 179 65.3" style="enable-background:new 0 0 179 65.3;" xml:space="preserve">
<style type="text/css">
	.st0{fill:#003876;}
	.st1{fill:#ED232A;}
	.st2{font-family:'ArtifexCF-ExtraLight';}
	.st3{font-size:7.2391px;}
</style>
<desc>Created with Sketch.</desc>
<g>
	<g>
		<path class="st0" d="M27.1,22l0.7-3.7l-1.9-4.6l-2.2-2.3l-0.1-0.1c3.5,1.5,6.1,5.6,6.5,10.6l0,0L27.1,22z M26,22h-3.8V11.5l0,0
			c2.3,1.9,3.8,5.8,3.8,10.3C26,21.9,26,22,26,22z M30.1,22h-3c0,0,0-0.4,0-0.6c0,0.2,0-0.7-0.1-1.8c-0.3-2.8-1.1-5-2.4-6.9
			c-0.5-0.8-1.1-1.3-1.1-1.3l0,0c0,0,0.3,0.2,0.5,0.3c0.2,0.2,0.5,0.3,0.7,0.5c0.8,0.6,1.5,1.2,1.8,1.6c0,0,0.2,0.2,0.3,0.3
			c0.1,0.2,0.3,0.3,0.4,0.5c0.5,0.5,0.9,1.2,1.3,1.9c0.2,0.4,0.4,0.8,0.6,1.2C29.8,19.3,30,21,30.1,22C30.1,21.8,30.1,22,30.1,22z
			 M30.1,21.8L30.1,21.8L30.1,21.8z M31.6,21.5l-1.5-6L27,12.2c0,0-0.9-0.7-1.4-1c-0.2-0.1-0.4-0.2-0.4-0.2l0,0
			c4.4,1.8,7.5,6,7.7,11l0,0L31.6,21.5z M31.2,22c0,0-0.1-1.2-0.3-2.3c-0.2-0.9-0.5-1.7-0.5-1.8c-0.2-0.5-0.4-1.1-0.7-1.7
			c-0.6-1.1-1.2-2.2-2.2-3.3c-0.3-0.3-0.7-0.7-1.1-1.1c-0.3-0.2-0.5-0.4-0.7-0.5c0.1,0.1,0.2,0.1,0.4,0.2c0.3,0.2,0.7,0.4,1.1,0.7
			c0.2,0.1,0.3,0.3,0.5,0.4c0,0,0.6,0.5,1.2,1c0.5,0.4,0.9,0.9,1.2,1.3c0.5,0.7,1.1,1.5,1.5,2.4c0.5,1,0.9,2.1,1.1,3
			c0.2,0.7,0.3,1.8,0.3,1.8L31.2,22z M30.1,22h-3c0,0,0-0.4,0-0.6c0,0.2,0-0.7-0.1-1.8c-0.3-2.8-1.1-5-2.4-6.9
			c-0.5-0.8-1.1-1.3-1.1-1.3l0,0c0,0,0.3,0.2,0.5,0.3c0.2,0.2,0.5,0.3,0.7,0.5c0.8,0.6,1.5,1.2,1.8,1.6c0,0,0.2,0.2,0.3,0.3
			c0.1,0.2,0.3,0.3,0.4,0.5c0.5,0.5,0.9,1.2,1.3,1.9c0.2,0.4,0.4,0.8,0.6,1.2C29.8,19.3,30,21,30.1,22C30.1,21.8,30.1,22,30.1,22z
			 M30.1,21.8L30.1,21.8L30.1,21.8z M19.5,11.4l-2.2,2.3l-1.9,4.6L16,22h-3l0,0C13.4,17,16,12.9,19.5,11.4
			C19.6,11.3,19.5,11.4,19.5,11.4z M17.2,22c0,0,0-0.1,0-0.2c0-4.5,1.5-8.3,3.8-10.3l0,0V22H17.2z M13.1,21.8L13.1,21.8L13.1,21.8
			L13.1,21.8L13.1,21.8z M19.6,11.3c0,0-0.6,0.5-1.1,1.3c-1.2,1.9-2.1,4.2-2.4,6.9C16,20.7,16,21.6,16,21.3c0,0.2,0,0.6,0,0.6h-3
			v-0.1l0,0l0,0c0.1-1.1,0.3-2.7,1-4.3c0.2-0.4,0.3-0.8,0.6-1.2c0.4-0.7,0.8-1.3,1.3-1.9c0.1-0.1,0.3-0.3,0.4-0.5s0.3-0.3,0.3-0.3
			c0.4-0.4,1-1,1.8-1.6c0.2-0.2,0.5-0.3,0.7-0.5C19.3,11.5,19.6,11.3,19.6,11.3L19.6,11.3z M17.6,11.2c-0.5,0.4-1.4,1-1.4,1L13,15.5
			L11.5,22h-1.3l0,0c0.2-5,3.3-9.2,7.7-11l0,0C17.9,11,17.8,11,17.6,11.2z M15.7,12.8c-1.1,1.1-1.7,2.2-2.2,3.3
			c-0.3,0.6-0.5,1.2-0.7,1.7c0,0.1-0.3,0.9-0.5,1.8C12,20.8,11.9,22,11.9,22h-1.7c0,0,0.1-1.1,0.3-1.8c0.2-0.9,0.6-2,1.1-3
			c0.4-0.9,1-1.7,1.5-2.4c0.3-0.4,0.7-0.9,1.2-1.3c0.6-0.5,1.1-1,1.2-1c0.2-0.1,0.4-0.3,0.5-0.4c0.4-0.3,0.8-0.5,1.1-0.7
			c0.2-0.1,0.3-0.2,0.4-0.2c-0.2,0.1-0.4,0.3-0.7,0.5C16.4,12.1,16,12.5,15.7,12.8z M13.1,21.8L13.1,21.8L13.1,21.8L13.1,21.8
			L13.1,21.8z M19.6,11.3c0,0-0.6,0.5-1.1,1.3c-1.2,1.9-2.1,4.2-2.4,6.9C16,20.7,16,21.6,16,21.3c0,0.2,0,0.6,0,0.6h-3v-0.1l0,0l0,0
			c0.1-1.1,0.3-2.7,1-4.3c0.2-0.4,0.3-0.8,0.6-1.2c0.4-0.7,0.8-1.3,1.3-1.9c0.1-0.1,0.3-0.3,0.4-0.5s0.3-0.3,0.3-0.3
			c0.4-0.4,1-1,1.8-1.6c0.2-0.2,0.5-0.3,0.7-0.5C19.3,11.5,19.6,11.3,19.6,11.3L19.6,11.3z M23.8,7.2h-4.5c0,0-0.1,0-0.1-0.1V7
			c0,0,0-0.1,0.1-0.1h4.5c0,0,0.1,0,0.1,0.1L23.8,7.2C23.9,7.2,23.8,7.2,23.8,7.2z M23.8,10.6h-4.5c0,0-0.1,0-0.1-0.1v-0.2
			c0,0,0-0.1,0.1-0.1h4.5c0,0,0.1,0,0.1,0.1L23.8,10.6C23.9,10.6,23.8,10.6,23.8,10.6z M33.5,23.2H9.6c0,0-0.1,0-0.1-0.1v-0.2
			c0,0,0-0.1,0.1-0.1h23.9c0,0,0.1,0,0.1,0.1L33.5,23.2C33.6,23.1,33.6,23.2,33.5,23.2z M21.1,4.5L21.1,4.5L21.1,4.5L21,4.3l0,0h0.1
			l0,0V4.5C21.2,4.5,21.2,4.5,21.1,4.5z M22.1,4.5L22.1,4.5C22,4.5,22,4.5,22.1,4.5L22,4.3l0,0h0.1l0,0V4.5L22.1,4.5z M21.1,4.6
			L21.1,4.6l1-0.1v0.1H21.1z M21.6,3.8L21.6,3.8c-0.1,0-0.1,0-0.1,0V3.6l0,0h0.1l0,0V3.8L21.6,3.8z M21.5,5V3.8h0.1L21.5,5L21.5,5z
			 M19.8,6.7L19.8,6.7c0-1,0.8-1.8,1.7-1.8c1,0,1.7,0.8,1.7,1.8l0,0H19.8z M23.7,7.2h-4.3c-0.1,0-0.1-0.1-0.1-0.1l0,0
			C19.3,7,19.4,7,19.4,7h4.3c0.1,0,0.1,0.1,0.1,0.1l0,0C23.9,7.1,23.8,7.2,23.7,7.2z M23.7,10.6h-4.3c-0.1,0-0.1-0.1-0.1-0.1l0,0
			c0-0.1,0.1-0.1,0.1-0.1h4.3c0.1,0,0.1,0.1,0.1,0.1l0,0C23.9,10.5,23.8,10.6,23.7,10.6z M21.8,10h-0.4c-0.1,0-0.1-0.1-0.1-0.1V7.6
			c0-0.1,0.1-0.1,0.1-0.1h0.4c0.1,0,0.1,0.1,0.1,0.1v2.3C21.9,9.9,21.9,10,21.8,10z M22.9,10h-0.4c-0.1,0-0.1-0.1-0.1-0.1V7.6
			c0-0.1,0.1-0.1,0.1-0.1h0.4C23,7.5,23,7.6,23,7.6v2.3C23.1,9.9,23,10,22.9,10z M20.6,10h-0.4c-0.1,0-0.1-0.1-0.1-0.1V7.6
			c0-0.1,0.1-0.1,0.1-0.1h0.4c0.1,0,0.1,0.1,0.1,0.1v2.3C20.8,9.9,20.7,10,20.6,10z M25.9,23v-0.5c0-0.1,0.1-0.1,0.1-0.1h1.1
			c0.1,0,0.1,0.1,0.1,0.1V23H25.9z M27,24.9h-1c-0.1,0-0.1-0.1-0.1-0.1v-1c0-0.1,0.1-0.1,0.1-0.1h1c0.1,0,0.1,0.1,0.1,0.1v1
			C27.2,24.8,27.1,24.9,27,24.9z M30,23v-0.5c0-0.1,0.1-0.1,0.1-0.1h1.1c0.1,0,0.1,0.1,0.1,0.1V23H30z M31.1,24.9h-1
			c-0.1,0-0.1-0.1-0.1-0.1v-1c0-0.1,0.1-0.1,0.1-0.1h1c0.1,0,0.1,0.1,0.1,0.1v1C31.3,24.8,31.2,24.9,31.1,24.9z M16,22.9v-0.5
			c0-0.1,0.1-0.1,0.1-0.1h1.1c0.1,0,0.1,0.1,0.1,0.1V23L16,22.9z M17.1,24.9h-1c-0.1,0-0.1-0.1-0.1-0.1v-1c0-0.1,0.1-0.1,0.1-0.1h1
			c0.1,0,0.1,0.1,0.1,0.1v1C17.2,24.8,17.2,24.9,17.1,24.9z M11.9,22.9v-0.5c0-0.1,0.1-0.1,0.1-0.1h1c0.1,0,0.1,0.1,0.1,0.1V23
			L11.9,22.9z M13,24.9h-1c-0.1,0-0.1-0.1-0.1-0.1v-1c0-0.1,0.1-0.1,0.1-0.1h1c0.1,0,0.1,0.1,0.1,0.1v1C13.1,24.8,13.1,24.9,13,24.9
			z M20.9,22.9v-0.5c0-0.1,0.1-0.1,0.1-0.1h1.1c0.1,0,0.1,0.1,0.1,0.1V23L20.9,22.9z M22.1,24.9h-1c-0.1,0-0.1-0.1-0.1-0.1v-1
			c0-0.1,0.1-0.1,0.1-0.1h1c0.1,0,0.1,0.1,0.1,0.1v1L22.1,24.9z M33.5,23.2H9.7c-0.1,0-0.1-0.1-0.1-0.1V23c0-0.1,0.1-0.1,0.1-0.1
			h23.8c0.1,0,0.1,0.1,0.1,0.1l0,0C33.6,23.1,33.5,23.2,33.5,23.2z M33.5,26H9.7c-0.1,0-0.1-0.1-0.1-0.1v-0.6c0-0.1,0.1-0.1,0.1-0.1
			h23.8c0.1,0,0.1,0.1,0.1,0.1v0.6L33.5,26z"/>
	</g>
	<g>
		<path class="st0" d="M9.6,31.2L9.6,31.2c0-0.9,0.6-1.7,1.6-1.7c0.5,0,0.9,0.2,1.2,0.4l-0.2,0.3c-0.2-0.2-0.5-0.4-1-0.4
			c-0.7,0-1.2,0.6-1.2,1.3l0,0c0,0.8,0.5,1.3,1.3,1.3c0.4,0,0.7-0.1,0.9-0.3v-0.8h-1V31h1.3v1.3c-0.3,0.3-0.7,0.5-1.3,0.5
			C10.3,32.8,9.6,32.1,9.6,31.2z"/>
		<path class="st0" d="M13.8,31.2L13.8,31.2c0-0.9,0.7-1.7,1.6-1.7s1.6,0.8,1.6,1.7l0,0c0,0.9-0.7,1.7-1.6,1.7S13.8,32.1,13.8,31.2z
			 M16.7,31.2L16.7,31.2c0-0.7-0.5-1.3-1.3-1.3c-0.7,0-1.3,0.6-1.3,1.3l0,0c0,0.7,0.5,1.3,1.3,1.3C16.1,32.5,16.7,31.9,16.7,31.2z"
			/>
		<path class="st0" d="M18.3,29.6h1.4c0.4,0,0.7,0.1,0.8,0.3c0.1,0.1,0.2,0.3,0.2,0.5l0,0c0,0.4-0.3,0.6-0.5,0.7
			c0.4,0.1,0.7,0.3,0.7,0.8l0,0c0,0.6-0.5,0.9-1.2,0.9h-1.4V29.6z M19.6,31c0.4,0,0.7-0.2,0.7-0.6l0,0c0-0.3-0.3-0.5-0.7-0.5h-1V31
			H19.6z M19.8,32.5c0.5,0,0.8-0.2,0.8-0.6l0,0c0-0.3-0.3-0.6-0.9-0.6h-1v1.1h1.1V32.5z"/>
		<path class="st0" d="M22.2,29.6h0.4v3.2h-0.4V29.6z"/>
		<path class="st0" d="M24,29.6h2.3v0.3h-2V31h1.8v0.3h-1.8v1.1h2v0.3H24V29.6z"/>
		<path class="st0" d="M27.6,29.6H29c0.4,0,0.7,0.1,0.9,0.3c0.2,0.2,0.2,0.4,0.2,0.6l0,0c0,0.5-0.4,0.8-0.9,0.9l1,1.3h-0.4l-0.9-1.2
			l0,0H28v1.2h-0.4V29.6z M29,31.2c0.5,0,0.8-0.2,0.8-0.7l0,0c0-0.4-0.3-0.6-0.8-0.6h-1v1.3C28,31.2,29,31.2,29,31.2z"/>
		<path class="st0" d="M31.4,29.6h0.3l2,2.6v-2.6h0.4v3.2h-0.3l-2.1-2.6v2.6h-0.4v-3.2H31.4z"/>
		<path class="st0" d="M35.4,31.2L35.4,31.2c0-0.9,0.7-1.7,1.6-1.7s1.6,0.8,1.6,1.7l0,0c0,0.9-0.7,1.7-1.6,1.7
			C36.1,32.8,35.4,32.1,35.4,31.2z M38.3,31.2L38.3,31.2c0-0.7-0.5-1.3-1.3-1.3c-0.7,0-1.3,0.6-1.3,1.3l0,0c0,0.7,0.5,1.3,1.3,1.3
			S38.3,31.9,38.3,31.2z"/>
		<path class="st0" d="M41.9,29.6H43c1,0,1.7,0.7,1.7,1.6l0,0c0,0.9-0.7,1.6-1.7,1.6h-1.1V29.6z M43,32.4c0.8,0,1.3-0.6,1.3-1.3l0,0
			c0-0.7-0.5-1.3-1.3-1.3h-0.8v2.5L43,32.4L43,32.4z"/>
		<path class="st0" d="M46,29.6h2.3v0.3h-2V31h1.8v0.3h-1.8v1.1h2v0.3H46V29.6z"/>
		<path class="st0" d="M51.5,29.6h0.4v2.9h1.8v0.3h-2.2V29.6z"/>
		<path class="st0" d="M56.1,29.5h0.3l1.5,3.2h-0.4l-0.4-0.8h-1.7L55,32.8h-0.4L56.1,29.5z M56.9,31.6L56.2,30l-0.7,1.6H56.9z"/>
	</g>
	<g>
		<path class="st0" d="M14,40.6c-0.4,0.1-1,0.1-1.4-0.4l-1-1.3c-0.3-0.4-0.6-0.4-1.1-0.4v1.3c0,0.5,0.3,0.5,0.7,0.6v0.2h-2
			c-0.1,0-0.1-0.2,0-0.2c0.3,0,0.5-0.2,0.5-0.6v-3c0-0.4-0.2-0.6-0.5-0.6c-0.1,0,0-0.2,0-0.2c0.3,0,0.5,0,0.8,0c0.5,0,0.9,0,1.3,0
			c1,0,1.7,0.4,1.7,1.2s-0.6,1.1-1.2,1.2l0,0c0.3,0,0.5,0.1,0.7,0.5l1,1.2c0.2,0.3,0.4,0.3,0.5,0.3C14,40.4,14,40.6,14,40.6z
			 M12.1,37.3c0-0.7-0.5-1.1-1-1.1c-0.4,0-0.5,0.2-0.5,0.5v1.4h0.2C11.7,38.2,12.1,38,12.1,37.3z"/>
		<path class="st0" d="M15.1,40.3c0.4-0.1,0.7-0.2,0.7-0.6v-2.9c0-0.4-0.3-0.5-0.6-0.6c-0.1,0,0-0.2,0-0.2c0.5,0.1,1.3,0,1.7,0
			c0.6,0,1,0,1.6,0c0.2,0,0.2,0.1,0.1,0.3l-0.2,0.6c0,0.1-0.2,0.1-0.2,0c-0.1-0.3-0.3-0.5-1.1-0.5c-0.5,0-0.6,0.1-0.6,0.5V38
			c0,0.2,0.1,0.2,0.2,0.2h0.1c0.5,0,1-0.1,1.3-0.3c0.1-0.1,0.2,0,0.2,0.1l-0.4,0.8c-0.1,0.1-0.2,0.1-0.2,0c-0.2-0.2-0.5-0.3-0.9-0.3
			h-0.1c-0.1,0-0.2,0-0.2,0.2v1.1c0,0.4,0.2,0.5,0.7,0.5c1,0,1.4-0.5,1.6-0.7c0-0.1,0.2,0,0.2,0.1c0,0.3-0.3,1-0.7,1
			c-0.4,0-0.7,0-1.3,0c-0.6,0-1.3,0-1.9,0C15,40.6,15,40.4,15.1,40.3z"/>
		<path class="st0" d="M21.7,38.8v1c0,0.5,0.3,0.5,0.7,0.6v0.2h-2c-0.1,0-0.1-0.2,0-0.2c0.3,0,0.5-0.2,0.5-0.6v-3
			c0-0.4-0.2-0.6-0.5-0.6c-0.1,0,0-0.2,0-0.2c0.3,0,0.5,0,0.8,0c0.5,0,0.9,0,1.2,0c1,0,1.9,0.4,1.9,1.4C24.2,38.5,23.1,39,21.7,38.8
			z M21.7,36.8v1.7c1.1,0.2,1.7-0.1,1.7-1c0-0.8-0.5-1.2-1.2-1.2C21.8,36.3,21.7,36.4,21.7,36.8z"/>
		<path class="st0" d="M26.1,38.8v-2.1c0-0.4-0.2-0.6-0.5-0.6c-0.1,0,0-0.2,0-0.2h1.8c0.1,0,0.1,0.2,0,0.2c-0.3,0-0.5,0.1-0.5,0.6
			v2.1c0,0.9,0.5,1.4,1.2,1.4s1.3-0.4,1.3-1.4v-2.1c0-0.4-0.2-0.5-0.6-0.6v-0.2h1.5c0,0,0.1,0.2,0,0.2c-0.3,0-0.5,0.1-0.5,0.6v2.1
			c0,1.2-0.8,1.8-1.8,1.8C27.2,40.7,26.1,40.2,26.1,38.8z M28.1,34.3c0.1-0.2,0.7,0.3,0.5,0.5l-0.9,0.7c-0.1,0.1-0.3-0.1-0.3-0.2
			L28.1,34.3z"/>
		<path class="st0" d="M35.8,39.2c0,0.8-0.7,1.3-1.9,1.3c-0.3,0-0.7,0-1.2,0c-0.4,0-0.7,0-1,0c-0.1,0-0.1-0.2,0-0.2
			c0.4-0.1,0.7-0.2,0.7-0.6v-2.9c0-0.4-0.3-0.5-0.6-0.6c-0.1,0,0-0.2,0-0.2c0.3,0,0.6,0,0.8,0c0.5,0,0.9,0,1.2,0
			c0.9,0,1.6,0.4,1.6,1.1c0,0.5-0.4,0.9-0.8,1l0,0C35.2,38.1,35.8,38.5,35.8,39.2z M33.1,36.8V38h0.7c0.5,0,0.8-0.2,0.8-0.7
			c0-0.6-0.4-0.9-1-0.9C33.2,36.3,33.1,36.4,33.1,36.8z M34.9,39.4c0-0.7-0.5-1.1-1.1-1.1h-0.7v1.4c0,0.4,0.2,0.5,0.8,0.5
			C34.5,40.2,34.9,40.1,34.9,39.4z"/>
		<path class="st0" d="M37,40.3c0.4-0.1,0.7-0.2,0.7-0.6v-2.9c0-0.5-0.3-0.6-0.6-0.6c-0.1,0,0-0.2,0-0.2H39c0,0,0.1,0.2,0,0.2
			c-0.3,0-0.5,0.1-0.5,0.6v2.9c0,0.4,0.2,0.5,0.7,0.5c1,0,1.4-0.5,1.6-0.7c0-0.1,0.2,0,0.2,0.1c0,0.3-0.3,1-0.7,1s-0.7,0-1.3,0
			s-1.3,0-1.9,0C37,40.6,37,40.4,37,40.3z"/>
		<path class="st0" d="M42.2,40.3c0.3,0,0.5-0.2,0.5-0.6v-3c0-0.4-0.2-0.5-0.5-0.6c-0.1,0,0-0.2,0-0.2H44c0.1,0,0.1,0.2,0,0.2
			c-0.3,0-0.5,0.1-0.5,0.6v3c0,0.5,0.3,0.6,0.5,0.6c0.1,0,0,0.2,0,0.2h-1.8C42.1,40.6,42.1,40.4,42.2,40.3z"/>
		<path class="st0" d="M45.4,38.3c0-1.1,0.7-2.5,2.6-2.5c0.8,0,1.4,0.2,1.4,0.5l-0.1,0.3c-0.2,0.7-0.5-0.2-1.7-0.2
			c-0.9,0-1.4,0.6-1.4,1.6c0,1.5,1.1,2.1,2,2.1c0.1,0,0.7-0.1,1.1-0.3c0.1,0,0.2,0.1,0.2,0.2c-0.3,0.4-1.2,0.8-1.4,0.8
			C46.9,40.7,45.4,40,45.4,38.3z"/>
		<path class="st0" d="M55.5,40.6h-1.7c-0.1,0-0.1-0.2,0-0.2c0.2,0,0.5-0.1,0.3-0.7L54,39.5c-0.1-0.2-0.2-0.2-0.4-0.2h-1.4
			c-0.2,0-0.3,0-0.4,0.2l-0.1,0.2c-0.2,0.6,0,0.7,0.3,0.7c0.1,0,0.1,0.2,0,0.2h-1.4c-0.1,0-0.1-0.2,0-0.2c0.3,0,0.4-0.1,0.7-0.7
			l1.1-2.6c0.3-0.6,0.3-0.9,0.3-1.1l0.5-0.1l1.6,3.8c0.2,0.6,0.4,0.7,0.7,0.7C55.6,40.4,55.6,40.6,55.5,40.6z M53.6,38.8L52.9,37
			l-0.8,1.9c0,0.1,0.1,0.1,0.2,0.1h1.3C53.6,38.9,53.7,38.9,53.6,38.8z"/>
		<path class="st0" d="M58.7,40.3c0.4-0.1,0.7-0.2,0.7-0.6v-2.9c0-0.4-0.3-0.5-0.6-0.6c-0.1,0,0-0.2,0-0.2c0.3,0,0.5,0,0.8,0
			c0.5,0,1,0,1.3,0c1.6,0,2.5,1,2.5,2.2c0,1.3-0.9,2.4-2.5,2.4c-0.3,0-0.7,0-1.2,0c-0.4,0-0.7,0-1,0C58.7,40.6,58.6,40.4,58.7,40.3z
			 M62.7,38.5c0-1.3-0.7-2.3-1.9-2.3c-0.5,0-0.6,0.1-0.6,0.5v2.9c0,0.4,0.2,0.5,0.9,0.5C62.1,40.2,62.7,39.7,62.7,38.5z"/>
		<path class="st0" d="M64.9,38.3c0-1.3,1-2.4,2.4-2.4s2.4,1,2.4,2.4c0,1.3-0.9,2.5-2.4,2.5C65.9,40.7,64.9,39.7,64.9,38.3z
			 M68.9,38.6c0-1.3-0.9-2.3-1.9-2.3c-0.6,0-1.4,0.4-1.4,1.6c0,1.4,0.9,2.3,1.9,2.3C68.1,40.2,68.9,39.8,68.9,38.6z"/>
		<path class="st0" d="M76.9,40.6h-1.7c0,0-0.1-0.2,0-0.2c0.3,0,0.5-0.2,0.5-0.6l-0.1-2.2l-1.1,2.2c-0.1,0.3-0.2,0.6-0.3,0.7
			c0,0.1-0.2,0.1-0.3,0.1c-0.1,0-0.2,0-0.2-0.1l-1.5-2.9L72,39.8c0,0.5,0.3,0.6,0.5,0.6c0.1,0,0,0.2,0,0.2h-1.4
			c-0.1,0-0.1-0.2,0-0.2c0.3,0,0.5-0.1,0.5-0.6l0.2-3.8c0-0.1,0.3-0.1,0.3,0l1.9,3.6l1.8-3.6c0.1-0.1,0.3-0.1,0.3,0l0.2,3.8
			c0,0.5,0.3,0.6,0.5,0.6C77,40.4,76.9,40.6,76.9,40.6z"/>
		<path class="st0" d="M78.3,40.3c0.3,0,0.5-0.2,0.5-0.6v-3c0-0.4-0.2-0.5-0.5-0.6c-0.1,0,0-0.2,0-0.2h1.8c0.1,0,0.1,0.2,0,0.2
			c-0.3,0-0.5,0.1-0.5,0.6v3c0,0.5,0.3,0.6,0.5,0.6c0.1,0,0,0.2,0,0.2h-1.8C78.2,40.6,78.2,40.4,78.3,40.3z"/>
		<path class="st0" d="M85.6,40.5l-3.2-3.3v2.5c0,0.5,0.3,0.5,0.6,0.6c0.1,0,0,0.2,0,0.2h-1.6c-0.1,0-0.1-0.2,0-0.2
			c0.3-0.1,0.5-0.1,0.5-0.6v-2.6c0-0.5-0.1-0.7-0.2-0.9c-0.1-0.1-0.1-0.1-0.1-0.2c0-0.1,0-0.1,0.1-0.1h0.5c0.1,0,0.1,0,0.2,0.1
			l3.1,3.3v-2.5c0-0.5-0.3-0.5-0.6-0.6c-0.1,0,0-0.2,0-0.2h1.6c0.1,0,0.1,0.2,0,0.2c-0.3,0.1-0.5,0.1-0.5,0.6v2.6
			c0,0.4,0,0.9,0.1,1.2c0,0.1-0.1,0.1-0.2,0.1C85.7,40.6,85.7,40.6,85.6,40.5z"/>
		<path class="st0" d="M87.8,40.3c0.3,0,0.5-0.2,0.5-0.6v-3c0-0.4-0.2-0.5-0.5-0.6c-0.1,0,0-0.2,0-0.2h1.8c0.1,0,0.1,0.2,0,0.2
			c-0.3,0-0.5,0.1-0.5,0.6v3c0,0.5,0.3,0.6,0.5,0.6c0.1,0,0,0.2,0,0.2h-1.8C87.8,40.6,87.8,40.4,87.8,40.3z"/>
		<path class="st0" d="M91.1,38.3c0-1.1,0.7-2.5,2.6-2.5c0.8,0,1.4,0.2,1.4,0.5L95,36.6c-0.2,0.7-0.5-0.2-1.7-0.2
			c-0.9,0-1.4,0.6-1.4,1.6c0,1.5,1.1,2.1,2,2.1c0.1,0,0.7-0.1,1.1-0.3c0.1,0,0.2,0.1,0.2,0.2c-0.3,0.4-1.2,0.8-1.4,0.8
			C92.6,40.7,91.1,40,91.1,38.3z"/>
		<path class="st0" d="M101.1,40.6h-1.7c-0.1,0-0.1-0.2,0-0.2c0.2,0,0.5-0.1,0.3-0.7l-0.1-0.2c-0.1-0.2-0.2-0.2-0.4-0.2h-1.4
			c-0.2,0-0.3,0-0.4,0.2l-0.1,0.2c-0.2,0.6,0,0.7,0.3,0.7c0.1,0,0.1,0.2,0,0.2h-1.4c-0.1,0-0.1-0.2,0-0.2c0.3,0,0.4-0.1,0.7-0.7
			l1.1-2.6c0.3-0.6,0.3-0.9,0.3-1.1l0.5-0.1l1.6,3.8c0.2,0.6,0.4,0.7,0.7,0.7C101.2,40.4,101.2,40.6,101.1,40.6z M99.3,38.8L98.5,37
			l-0.8,1.9c0,0.1,0.1,0.1,0.2,0.1h1.3C99.2,38.9,99.3,38.9,99.3,38.8z"/>
		<path class="st0" d="M106.5,40.5l-3.2-3.3v2.5c0,0.5,0.3,0.5,0.6,0.6c0.1,0,0,0.2,0,0.2h-1.6c-0.1,0-0.1-0.2,0-0.2
			c0.3-0.1,0.5-0.1,0.5-0.6v-2.6c0-0.5-0.1-0.7-0.2-0.9c-0.1-0.1-0.1-0.1-0.1-0.2c0-0.1,0-0.1,0.1-0.1h0.5c0.1,0,0.1,0,0.2,0.1
			l3.1,3.3v-2.5c0-0.5-0.3-0.5-0.6-0.6c-0.1,0,0-0.2,0-0.2h1.6c0.1,0,0.1,0.2,0,0.2c-0.3,0.1-0.5,0.1-0.5,0.6v2.6
			c0,0.4,0,0.9,0.1,1.2c0,0.1-0.1,0.1-0.2,0.1C106.7,40.6,106.6,40.6,106.5,40.5z"/>
		<path class="st0" d="M113.4,40.6h-1.7c-0.1,0-0.1-0.2,0-0.2c0.2,0,0.5-0.1,0.3-0.7l-0.1-0.2c-0.1-0.2-0.2-0.2-0.4-0.2h-1.4
			c-0.2,0-0.3,0-0.4,0.2l-0.1,0.2c-0.2,0.6,0,0.7,0.3,0.7c0.1,0,0.1,0.2,0,0.2h-1.4c-0.1,0-0.1-0.2,0-0.2c0.3,0,0.4-0.1,0.7-0.7
			l1.1-2.6c0.3-0.6,0.3-0.9,0.3-1.1l0.5-0.1l1.6,3.8c0.2,0.6,0.4,0.7,0.7,0.7C113.5,40.4,113.4,40.6,113.4,40.6z M111.5,38.8
			l-0.8-1.9l-0.8,1.9c0,0.1,0.1,0.1,0.2,0.1h1.3C111.5,38.9,111.6,38.9,111.5,38.8z"/>
	</g>
	<rect x="9.7" y="44.5" class="st1" width="23.9" height="1.1"/>
</g>
<text transform="matrix(1 0 0 1 9.5422 54.6395)" class="st1 st2 st3">ÉTICA E INTEGRIDAD GUBERNAMENTAL</text>
</svg>
