<?xml version="1.0" encoding="utf-8"?>
<!-- Generator: Adobe Illustrator 25.3.1, SVG Export Plug-In . SVG Version: 6.00 Build 0)  -->
<svg version="1.1" id="Layer_1" xmlns="http://www.w3.org/2000/svg" xmlns:xlink="http://www.w3.org/1999/xlink" x="0px" y="0px"
	 viewBox="0 0 513 516.6" style="enable-background:new 0 0 513 516.6;" xml:space="preserve">
<style type="text/css">
	.st0{fill:#003876;}
	.st1{fill:#FFFFFF;}
</style>
<desc>Created with Sketch.</desc>
<circle class="st0" cx="250.9" cy="262.3" r="238.5"/>
<g>
	<path class="st1" d="M304.8,307.8l6.8-35.9l-18.4-44.7l-21.4-22.3l-1-1c34,14.6,59.2,54.4,63.1,102.9l0,0L304.8,307.8z
		 M294.1,307.8h-36.9v-102l0,0c22.3,18.4,36.9,56.3,36.9,100C294.1,306.9,294.1,307.8,294.1,307.8z M333.9,307.8h-29.1
		c0,0,0-3.9,0-5.8c0,1.9,0-6.8-1-17.5c-2.9-27.2-10.7-48.6-23.3-67c-4.9-7.8-10.7-12.6-10.7-12.6l0,0c0,0,2.9,1.9,4.9,2.9
		c1.9,1.9,4.9,2.9,6.8,4.9c7.8,5.8,14.6,11.7,17.5,15.5c0,0,1.9,1.9,2.9,2.9c1,1.9,2.9,2.9,3.9,4.9c4.9,4.9,8.7,11.7,12.6,18.4
		c1.9,3.9,3.9,7.8,5.8,11.7C331,281.6,333,298.1,333.9,307.8C333.9,305.9,333.9,307.8,333.9,307.8z M333.9,305.9L333.9,305.9
		L333.9,305.9z M348.5,303l-14.6-58.3l-30.1-32c0,0-8.7-6.8-13.6-9.7c-1.9-1-3.9-1.9-3.9-1.9l0,0c42.7,17.5,72.8,58.3,74.8,106.8
		l0,0L348.5,303z M344.6,307.8c0,0-1-11.7-2.9-22.3c-1.9-8.7-4.9-16.5-4.9-17.5c-1.9-4.9-3.9-10.7-6.8-16.5
		c-5.8-10.7-11.7-21.4-21.4-32c-2.9-2.9-6.8-6.8-10.7-10.7c-2.9-1.9-4.9-3.9-6.8-4.9c1,1,1.9,1,3.9,1.9c2.9,1.9,6.8,3.9,10.7,6.8
		c1.9,1,2.9,2.9,4.9,3.9c0,0,5.8,4.9,11.7,9.7c4.9,3.9,8.7,8.7,11.7,12.6c4.9,6.8,10.7,14.6,14.6,23.3c4.9,9.7,8.7,20.4,10.7,29.1
		c1.9,6.8,2.9,17.5,2.9,17.5L344.6,307.8z M333.9,307.8h-29.1c0,0,0-3.9,0-5.8c0,1.9,0-6.8-1-17.5c-2.9-27.2-10.7-48.6-23.3-67
		c-4.9-7.8-10.7-12.6-10.7-12.6l0,0c0,0,2.9,1.9,4.9,2.9c1.9,1.9,4.9,2.9,6.8,4.9c7.8,5.8,14.6,11.7,17.5,15.5c0,0,1.9,1.9,2.9,2.9
		c1,1.9,2.9,2.9,3.9,4.9c4.9,4.9,8.7,11.7,12.6,18.4c1.9,3.9,3.9,7.8,5.8,11.7C331,281.6,333,298.1,333.9,307.8
		C333.9,305.9,333.9,307.8,333.9,307.8z M333.9,305.9L333.9,305.9L333.9,305.9z M231,204.9l-21.4,22.3l-18.4,44.7l5.8,35.9h-29.1
		l0,0C171.8,259.3,197,219.5,231,204.9C232,203.9,231,204.9,231,204.9z M208.7,307.8c0,0,0-1,0-1.9c0-43.7,14.6-80.6,36.9-100l0,0
		v102H208.7z M168.9,305.9L168.9,305.9L168.9,305.9L168.9,305.9L168.9,305.9z M232,203.9c0,0-5.8,4.9-10.7,12.6
		c-11.7,18.4-20.4,40.8-23.3,67c-1,11.7-1,20.4-1,17.5c0,1.9,0,5.8,0,5.8h-29.1v-1l0,0l0,0c1-10.7,2.9-26.2,9.7-41.8
		c1.9-3.9,2.9-7.8,5.8-11.7c3.9-6.8,7.8-12.6,12.6-18.4c1-1,2.9-2.9,3.9-4.9c1-1.9,2.9-2.9,2.9-2.9c3.9-3.9,9.7-9.7,17.5-15.5
		c1.9-1.9,4.9-2.9,6.8-4.9C229.1,205.9,232,203.9,232,203.9L232,203.9z M212.6,203c-4.9,3.9-13.6,9.7-13.6,9.7l-31.1,32l-14.6,63.1
		h-12.6l0,0c1.9-48.6,32-89.3,74.8-106.8l0,0C215.5,201,214.5,201,212.6,203z M194.1,218.5c-10.7,10.7-16.5,21.4-21.4,32
		c-2.9,5.8-4.9,11.7-6.8,16.5c0,1-2.9,8.7-4.9,17.5c-2.9,11.7-3.9,23.3-3.9,23.3h-16.5c0,0,1-10.7,2.9-17.5
		c1.9-8.7,5.8-19.4,10.7-29.1c3.9-8.7,9.7-16.5,14.6-23.3c2.9-3.9,6.8-8.7,11.7-12.6c5.8-4.9,10.7-9.7,11.7-9.7
		c1.9-1,3.9-2.9,4.9-3.9c3.9-2.9,7.8-4.9,10.7-6.8c1.9-1,2.9-1.9,3.9-1.9c-1.9,1-3.9,2.9-6.8,4.9C200.9,211.7,197,215.6,194.1,218.5
		z M168.9,305.9L168.9,305.9L168.9,305.9L168.9,305.9L168.9,305.9z M232,203.9c0,0-5.8,4.9-10.7,12.6c-11.7,18.4-20.4,40.8-23.3,67
		c-1,11.7-1,20.4-1,17.5c0,1.9,0,5.8,0,5.8h-29.1v-1l0,0l0,0c1-10.7,2.9-26.2,9.7-41.8c1.9-3.9,2.9-7.8,5.8-11.7
		c3.9-6.8,7.8-12.6,12.6-18.4c1-1,2.9-2.9,3.9-4.9c1-1.9,2.9-2.9,2.9-2.9c3.9-3.9,9.7-9.7,17.5-15.5c1.9-1.9,4.9-2.9,6.8-4.9
		C229.1,205.9,232,203.9,232,203.9L232,203.9z M272.8,164.1h-43.7c0,0-1,0-1-1v-1c0,0,0-1,1-1h43.7c0,0,1,0,1,1L272.8,164.1
		C273.7,164.1,272.8,164.1,272.8,164.1z M272.8,197.2h-43.7c0,0-1,0-1-1v-1.9c0,0,0-1,1-1h43.7c0,0,1,0,1,1L272.8,197.2
		C273.7,197.2,272.8,197.2,272.8,197.2z M367,319.5H134.9c0,0-1,0-1-1v-1.9c0,0,0-1,1-1H367c0,0,1,0,1,1L367,319.5
		C367.9,318.5,367.9,319.5,367,319.5z M246.5,137.9L246.5,137.9L246.5,137.9l-1-1.9l0,0h1l0,0V137.9
		C247.5,137.9,247.5,137.9,246.5,137.9z M256.3,137.9L256.3,137.9C255.3,137.9,255.3,137.9,256.3,137.9l-1-1.9l0,0h1l0,0V137.9
		L256.3,137.9z M246.5,138.9L246.5,138.9l9.7-1v1H246.5z M251.4,131.1L251.4,131.1c-1,0-1,0-1,0v-1.9l0,0h1l0,0V131.1L251.4,131.1z
		 M250.4,142.8v-11.7h1L250.4,142.8L250.4,142.8z M233.9,159.3L233.9,159.3c0-9.7,7.8-17.5,16.5-17.5c9.7,0,16.5,7.8,16.5,17.5l0,0
		H233.9z M271.8,164.1H230c-1,0-1-1-1-1l0,0c0-1,1-1,1-1h41.8c1,0,1,1,1,1l0,0C273.7,163.2,272.8,164.1,271.8,164.1z M271.8,197.2
		H230c-1,0-1-1-1-1l0,0c0-1,1-1,1-1h41.8c1,0,1,1,1,1l0,0C273.7,196.2,272.8,197.2,271.8,197.2z M253.3,191.3h-3.9c-1,0-1-1-1-1V168
		c0-1,1-1,1-1h3.9c1,0,1,1,1,1v22.3C254.3,190.4,254.3,191.3,253.3,191.3z M264,191.3h-3.9c-1,0-1-1-1-1V168c0-1,1-1,1-1h3.9
		c1,0,1,1,1,1v22.3C266,190.4,265,191.3,264,191.3z M241.7,191.3h-3.9c-1,0-1-1-1-1V168c0-1,1-1,1-1h3.9c1,0,1,1,1,1v22.3
		C243.6,190.4,242.7,191.3,241.7,191.3z M293.2,317.6v-4.9c0-1,1-1,1-1h10.7c1,0,1,1,1,1v4.9H293.2z M303.8,336h-9.7c-1,0-1-1-1-1
		v-9.7c0-1,1-1,1-1h9.7c1,0,1,1,1,1v9.7C305.8,335,304.8,336,303.8,336z M333,317.6v-4.9c0-1,1-1,1-1h10.7c1,0,1,1,1,1v4.9H333z
		 M343.7,336h-9.7c-1,0-1-1-1-1v-9.7c0-1,1-1,1-1h9.7c1,0,1,1,1,1v9.7C345.6,335,344.6,336,343.7,336z M197,316.6v-4.9c0-1,1-1,1-1
		h10.7c1,0,1,1,1,1v5.8L197,316.6z M207.7,336H198c-1,0-1-1-1-1v-9.7c0-1,1-1,1-1h9.7c1,0,1,1,1,1v9.7
		C208.7,335,208.7,336,207.7,336z M157.2,316.6v-4.9c0-1,1-1,1-1h9.7c1,0,1,1,1,1v5.8L157.2,316.6z M167.9,336h-9.7c-1,0-1-1-1-1
		v-9.7c0-1,1-1,1-1h9.7c1,0,1,1,1,1v9.7C168.9,335,168.9,336,167.9,336z M244.6,316.6v-4.9c0-1,1-1,1-1h10.7c1,0,1,1,1,1v5.8
		L244.6,316.6z M256.3,336h-9.7c-1,0-1-1-1-1v-9.7c0-1,1-1,1-1h9.7c1,0,1,1,1,1v9.7L256.3,336z M367,319.5H135.9c-1,0-1-1-1-1v-1
		c0-1,1-1,1-1H367c1,0,1,1,1,1l0,0C367.9,318.5,367,319.5,367,319.5z M367,346.7H135.9c-1,0-1-1-1-1v-5.8c0-1,1-1,1-1H367
		c1,0,1,1,1,1v5.8L367,346.7z"/>
</g>
</svg>
